<?xml version="1.0" encoding="UTF-8" standalone="no"?><!DOCTYPE svg PUBLIC "-//W3C//DTD SVG 1.1//EN" "http://www.w3.org/Graphics/SVG/1.1/DTD/svg11.dtd"><svg width="100%" height="100%" viewBox="0 0 24 24" version="1.1" xmlns="http://www.w3.org/2000/svg" xmlns:xlink="http://www.w3.org/1999/xlink" xml:space="preserve" xmlns:serif="http://www.serif.com/" style="fill-rule:evenodd;clip-rule:evenodd;stroke-linejoin:round;stroke-miterlimit:2;"><path d="M19,18l-10,0c-1.097,0 -2,-0.903 -2,-2l0,-12c0,-1.097 0.903,-2 2,-2l1,0l0,5l2,-1.5l2,1.5l0,-5l5,0c1.097,-0 2,0.903 2,2l0,12c0,1.097 -0.903,2 -2,2m-2,2l0,2l-12,0c-1.097,0 -2,-0.903 -2,-2l0,-14l2,0l0,14l12,0Z" style="fill:#eee8e7;fill-rule:nonzero;"/></svg>