<?xml version="1.0" encoding="UTF-8" standalone="no"?><!DOCTYPE svg PUBLIC "-//W3C//DTD SVG 1.1//EN" "http://www.w3.org/Graphics/SVG/1.1/DTD/svg11.dtd"><svg width="100%" height="100%" viewBox="0 0 612 792" version="1.1" xmlns="http://www.w3.org/2000/svg" xmlns:xlink="http://www.w3.org/1999/xlink" xml:space="preserve" xmlns:serif="http://www.serif.com/" style="fill-rule:evenodd;clip-rule:evenodd;stroke-linecap:round;stroke-linejoin:round;stroke-miterlimit:1.5;"><g><g><g><g><path d="M230.273,120.652c-6.391,0.626 -8.293,0.733 -21.473,0.236l20.207,13.714c9.723,0.063 15.075,-1.76 26.018,-1.857l-24.752,-12.093Z" style="fill:#ebebeb;stroke:#000;stroke-width:1px;"/><path d="M259.619,132.197c-8.89,1.423 -19.438,1.05 -30.612,-0l0,184.948c9.723,1.058 19.669,1.625 30.612,-0l0,-184.948Z" style="fill:#ebebeb;stroke:#000;stroke-width:1px;"/><path d="M229.007,132.197l-22.993,-13.932l0.436,180.474l22.557,18.406l0,-184.948Z" style="fill:#ebebeb;stroke:#000;stroke-width:1px;"/><path d="M230.273,117.388l0.406,-0.015l28.94,14.824l-4.804,0.548l-24.136,-12.363l-0.406,0.015l0,-3.009Z" style="fill:#ebebeb;stroke:#000;stroke-width:1px;"/></g></g></g></g></svg>