<?xml version="1.0" encoding="UTF-8" standalone="no"?><!DOCTYPE svg PUBLIC "-//W3C//DTD SVG 1.1//EN" "http://www.w3.org/Graphics/SVG/1.1/DTD/svg11.dtd"><svg width="100%" height="100%" viewBox="0 0 24 24" version="1.1" xmlns="http://www.w3.org/2000/svg" xmlns:xlink="http://www.w3.org/1999/xlink" xml:space="preserve" xmlns:serif="http://www.serif.com/" style="fill-rule:evenodd;clip-rule:evenodd;stroke-linejoin:round;stroke-miterlimit:2;"><path d="M15.5,12c2.5,0 4.5,2 4.5,4.5c0,0.88 -0.25,1.71 -0.69,2.4l3.08,3.1l-1.39,1.39l-3.12,-3.07c-0.69,0.43 -1.51,0.68 -2.38,0.68c-2.5,0 -4.5,-2 -4.5,-4.5c0,-2.5 2,-4.5 4.5,-4.5m0,2c-1.371,0 -2.5,1.129 -2.5,2.5c0,1.371 1.129,2.5 2.5,2.5c1.371,0 2.5,-1.129 2.5,-2.5c0,-1.371 -1.129,-2.5 -2.5,-2.5m-9.5,8c-1.097,0 -2,-0.903 -2,-2l0,-16c0,-1.11 0.9,-2 2,-2l1,0l0,7l2.5,-1.5l2.5,1.5l0,-7l6,0c1.097,-0 2,0.903 2,2l0,7.81c-1.17,-1.12 -2.75,-1.81 -4.5,-1.81c-3.566,0 -6.5,2.934 -6.5,6.5c0,2.31 1.21,4.35 3.03,5.5l-6.03,0Z" style="fill:#eee8e7;fill-rule:nonzero;"/></svg>