<?xml version="1.0" encoding="UTF-8" standalone="no"?><!DOCTYPE svg PUBLIC "-//W3C//DTD SVG 1.1//EN" "http://www.w3.org/Graphics/SVG/1.1/DTD/svg11.dtd"><svg width="100%" height="100%" viewBox="0 0 24 24" version="1.1" xmlns="http://www.w3.org/2000/svg" xmlns:xlink="http://www.w3.org/1999/xlink" xml:space="preserve" xmlns:serif="http://www.serif.com/" style="fill-rule:evenodd;clip-rule:evenodd;stroke-linejoin:round;stroke-miterlimit:2;"><path d="M13,19c0,1.1 0.3,2.12 0.81,3l-7.81,0c-1.11,0 -2,-0.89 -2,-2l0,-16c0,-1.1 0.89,-2 2,-2l1,0l0,7l2.5,-1.5l2.5,1.5l0,-7l6,0c1.1,0 2,0.89 2,2l0,9.09c-0.33,-0.05 -0.66,-0.09 -1,-0.09c-3.31,0 -6,2.69 -6,6m7,-1l0,-3l-2,0l0,3l-3,0l0,2l3,0l0,3l2,0l0,-3l3,0l0,-2l-3,0Z" style="fill:#eee8e7;fill-rule:nonzero;"/></svg>